<svg width="40" height="40" viewBox="0 0 40 40" fill="none" xmlns="http://www.w3.org/2000/svg">
<path d="M6.61648 22.1406V20.8182H14.4964V22.1406H11.3196V31H9.78835V22.1406H6.61648ZM24.6447 25.9091C24.6447 26.9962 24.4458 27.9309 24.0481 28.7131C23.6504 29.492 23.1052 30.0919 22.4125 30.5128C21.7231 30.9304 20.9392 31.1392 20.0609 31.1392C19.1793 31.1392 18.3921 30.9304 17.6994 30.5128C17.01 30.0919 16.4664 29.4903 16.0687 28.7081C15.671 27.9259 15.4721 26.9929 15.4721 25.9091C15.4721 24.822 15.671 23.889 16.0687 23.1101C16.4664 22.3279 17.01 21.728 17.6994 21.3104C18.3921 20.8894 19.1793 20.679 20.0609 20.679C20.9392 20.679 21.7231 20.8894 22.4125 21.3104C23.1052 21.728 23.6504 22.3279 24.0481 23.1101C24.4458 23.889 24.6447 24.822 24.6447 25.9091ZM23.1234 25.9091C23.1234 25.0805 22.9892 24.3828 22.7207 23.8161C22.4556 23.246 22.091 22.8151 21.627 22.5234C21.1663 22.2285 20.6442 22.081 20.0609 22.081C19.4743 22.081 18.9506 22.2285 18.4899 22.5234C18.0292 22.8151 17.6646 23.246 17.3961 23.8161C17.131 24.3828 16.9984 25.0805 16.9984 25.9091C16.9984 26.7377 17.131 27.437 17.3961 28.0071C17.6646 28.5739 18.0292 29.0047 18.4899 29.2997C18.9506 29.5914 19.4743 29.7372 20.0609 29.7372C20.6442 29.7372 21.1663 29.5914 21.627 29.2997C22.091 29.0047 22.4556 28.5739 22.7207 28.0071C22.9892 27.437 23.1234 26.7377 23.1234 25.9091ZM26.56 31V20.8182H30.1893C30.9814 20.8182 31.6377 20.9624 32.158 21.2507C32.6784 21.5391 33.0678 21.9335 33.3263 22.4339C33.5849 22.9311 33.7141 23.4912 33.7141 24.1143C33.7141 24.7408 33.5832 25.3042 33.3214 25.8047C33.0629 26.3018 32.6718 26.6963 32.1481 26.9879C31.6277 27.2763 30.9731 27.4205 30.1843 27.4205H27.6886V26.1179H30.0451C30.5456 26.1179 30.9516 26.0317 31.2631 25.8594C31.5747 25.6837 31.8034 25.4451 31.9492 25.1435C32.0951 24.8419 32.168 24.4988 32.168 24.1143C32.168 23.7299 32.0951 23.3885 31.9492 23.0902C31.8034 22.7919 31.573 22.5582 31.2582 22.3892C30.9466 22.2202 30.5356 22.1357 30.0252 22.1357H28.0962V31H26.56Z" fill="white"/>
<path d="M9 16L19.3668 7.5181C19.7351 7.21671 20.2649 7.21671 20.6332 7.5181L31 16" stroke="white" stroke-width="1.5" stroke-linecap="round"/>
</svg>
