<svg width="35" height="35" viewBox="0 0 35 35" fill="none" xmlns="http://www.w3.org/2000/svg">
<path d="M14.5833 31.3541H10.2083C8.66124 31.3541 7.17751 30.7395 6.08354 29.6456C4.98958 28.5516 4.375 27.0679 4.375 25.5208V12.3958C4.375 10.8487 4.98958 9.36497 6.08354 8.271C7.17751 7.17704 8.66124 6.56246 10.2083 6.56246H26.25C27.7971 6.56246 29.2808 7.17704 30.3748 8.271C31.4688 9.36497 32.0833 10.8487 32.0833 12.3958V16.7708M13.125 5.10413V8.02079M23.3333 5.10413V8.02079M4.375 13.8541H32.0833M28.4375 25.0002L26.25 27.1877" stroke="#EDAC04" stroke-width="3" stroke-linecap="round" stroke-linejoin="round"/>
<path d="M24.7917 32.0833C28.8187 32.0833 32.0833 28.8187 32.0833 24.7917C32.0833 20.7646 28.8187 17.5 24.7917 17.5C20.7646 17.5 17.5 20.7646 17.5 24.7917C17.5 28.8187 20.7646 32.0833 24.7917 32.0833Z" stroke="#EDAC04" stroke-width="3" stroke-linecap="round" stroke-linejoin="round"/>
</svg>
