<svg width="35" height="35" viewBox="0 0 35 35" fill="none" xmlns="http://www.w3.org/2000/svg">
<path d="M26.7296 32.8125C25.3952 32.8125 23.5208 32.3299 20.714 30.7617C17.3008 28.8476 14.6608 27.0805 11.266 23.6947C7.99299 20.4237 6.40022 18.3059 4.17102 14.2495C1.65266 9.66941 2.08196 7.26863 2.56184 6.24255C3.13333 5.01619 3.97688 4.28269 5.06721 3.55466C5.68651 3.14891 6.34189 2.80108 7.02503 2.5156C7.09338 2.48621 7.15696 2.45818 7.2137 2.43289C7.55208 2.28044 8.06477 2.05007 8.71419 2.29617C9.14758 2.45886 9.5345 2.79177 10.1402 3.38992C11.3823 4.61492 13.0796 7.34314 13.7058 8.68298C14.1262 9.58601 14.4044 10.1821 14.4051 10.8507C14.4051 11.6334 14.0114 12.237 13.5335 12.8885C13.444 13.0108 13.3551 13.1277 13.269 13.2412C12.7488 13.9248 12.6346 14.1223 12.7098 14.4751C12.8622 15.184 13.999 17.2942 15.8673 19.1584C17.7356 21.0225 19.785 22.0876 20.4966 22.2393C20.8644 22.3179 21.066 22.199 21.7715 21.6603C21.8727 21.5831 21.9766 21.5031 22.0853 21.4231C22.814 20.881 23.3896 20.4975 24.1538 20.4975H24.1579C24.8231 20.4975 25.3925 20.786 26.3359 21.2618C27.5663 21.8825 30.3766 23.558 31.6091 24.8014C32.2086 25.4057 32.5429 25.7913 32.7063 26.224C32.9524 26.8755 32.7206 27.3861 32.5696 27.7279C32.5443 27.7846 32.5162 27.8468 32.4868 27.9159C32.1991 28.5978 31.8492 29.2518 31.4416 29.8696C30.715 30.9565 29.9787 31.798 28.7496 32.3702C28.1185 32.6687 27.4278 32.82 26.7296 32.8125Z" fill="#EDAC04"/>
</svg>
