<svg width="35" height="35" viewBox="0 0 35 35" fill="none" xmlns="http://www.w3.org/2000/svg">
<path d="M11.6662 11.6666H7.77734V15.5555H11.6662V11.6666ZM15.5551 11.6666H19.444V15.5555H15.5551V11.6666ZM27.2218 11.6666H23.3329V15.5555H27.2218V11.6666Z" fill="#EDAC04"/>
<path d="M0 3.88889V35L9.33333 28C10.0061 27.4944 10.8247 27.2222 11.6667 27.2222H31.1111C32.1425 27.2222 33.1317 26.8125 33.861 26.0832C34.5903 25.3539 35 24.3647 35 23.3333V3.88889C35 2.85749 34.5903 1.86834 33.861 1.13903C33.1317 0.409721 32.1425 0 31.1111 0H3.88889C2.85749 0 1.86834 0.409721 1.13903 1.13903C0.409721 1.86834 0 2.85749 0 3.88889V3.88889ZM3.88889 27.2222V3.88889H31.1111V23.3333H10.3717C9.52986 23.3311 8.71042 23.6042 8.03833 24.1111L3.88889 27.2222Z" fill="#EDAC04"/>
</svg>
