<svg width="62" height="61" viewBox="0 0 62 61" fill="none" xmlns="http://www.w3.org/2000/svg">
<rect x="0.5" width="61" height="61" rx="30.5" fill="#FFF9E9"/>
<path fill-rule="evenodd" clip-rule="evenodd" d="M25.6181 18.049C26.9241 18.6255 27.6375 19.1093 28.4797 19.9895C29.4575 21.0116 30.1325 22.3184 30.4241 23.7538C30.5574 24.4103 30.5457 25.9551 30.4027 26.588C30.3459 26.8392 30.3055 27.0517 30.3131 27.0603C30.3206 27.0688 31.6049 26.8436 33.1669 26.5597C35.9788 26.0488 36.0133 26.0439 36.6228 26.0689C37.6446 26.1108 38.4639 26.4536 39.2131 27.1528C40.9687 28.791 40.878 31.6076 39.0207 33.1325C38.3545 33.6796 37.8295 33.88 36.3662 34.146C33.805 34.6116 33.1283 34.7368 33.0572 34.7584C33.0148 34.7712 32.7032 34.8292 32.3646 34.8873C32.026 34.9453 31.7143 35.0012 31.672 35.0114C31.6296 35.0216 31.5662 35.0317 31.5309 35.0338C31.4811 35.0369 31.4667 35.3781 31.4667 36.5602V38.0827L39.9703 38.0816C48.1274 38.0805 48.4824 38.0766 48.6825 37.9868C48.9811 37.8526 49.2269 37.622 49.3731 37.3388L49.5 37.0931V28.0597V19.0263L49.3883 18.7871C49.2563 18.5045 49.0404 18.2837 48.7418 18.1258L48.5252 18.0113L37.0075 18.0018C28.4974 17.9948 25.5234 18.0071 25.6181 18.049ZM22.1551 20.2748C21.9858 20.2987 21.6514 20.3782 21.412 20.4516C19.803 20.9444 18.6013 22.1588 18.0946 23.8042C17.9682 24.2149 17.9561 24.3276 17.9542 25.1162C17.9523 25.8566 17.9682 26.0366 18.0661 26.385C18.3005 27.2193 18.7744 28.0246 19.3812 28.6199C21.0801 30.2863 23.6662 30.5215 25.6748 29.1925C26.7057 28.5105 27.5147 27.3024 27.7451 26.1011C27.8551 25.5274 27.846 24.6141 27.7249 24.0759C27.1637 21.5827 24.7172 19.913 22.1551 20.2748ZM33.955 29.1276C32.6852 29.363 30.769 29.7153 29.6968 29.9105C28.6245 30.1058 27.2509 30.3564 26.6442 30.4674C26.0375 30.5784 24.0334 30.9438 22.1905 31.2793C20.3477 31.6149 18.7637 31.9251 18.6707 31.9688C18.5777 32.0125 18.4339 32.1136 18.3512 32.1936C18.2055 32.3345 12.7854 40.3405 12.6149 40.6665C12.4052 41.0678 12.4916 41.7201 12.8006 42.0682C13.3108 42.643 14.189 42.7098 14.7368 42.2155C14.8383 42.124 15.5793 41.0666 16.3835 39.8658C17.1876 38.6649 17.8629 37.6812 17.8841 37.6795C17.9053 37.678 17.9231 38.6416 17.9237 39.8208C17.9248 41.8672 17.9296 41.9754 18.0292 42.1934C18.157 42.4729 18.3937 42.7244 18.6665 42.8703C18.8716 42.9799 18.8737 42.98 23.2026 42.9938C28.147 43.0096 27.9093 43.0275 28.3341 42.6073C28.7719 42.1742 28.7476 42.4827 28.7476 37.3378C28.7476 34.8446 28.7626 32.8048 28.7809 32.8048C28.8142 32.8048 32.8206 32.0753 34.3654 31.788C34.8169 31.7041 35.3248 31.6115 35.4941 31.5823C36.852 31.3483 37.0868 31.272 37.375 30.9714C37.766 30.5636 37.8687 30.1009 37.6783 29.6051C37.5357 29.2339 37.3539 29.0246 37.0434 28.8744C36.5837 28.6519 36.4698 28.6613 33.955 29.1276Z" fill="#EDAC04"/>
</svg>
