<svg width="61" height="61" viewBox="0 0 61 61" fill="none" xmlns="http://www.w3.org/2000/svg">
<rect width="61" height="61" rx="30.5" fill="#FFF9E9"/>
<path d="M45 42.9V21.2C45 19.4903 43.6047 18.1 41.8889 18.1H38.7778V15H35.6667V18.1H26.3333V15H23.2222V18.1H20.1111C18.3953 18.1 17 19.4903 17 21.2V42.9C17 44.6096 18.3953 46 20.1111 46H41.8889C43.6047 46 45 44.6096 45 42.9ZM26.3333 39.8H23.2222V36.7H26.3333V39.8ZM26.3333 33.6H23.2222V30.5H26.3333V33.6ZM32.5556 39.8H29.4444V36.7H32.5556V39.8ZM32.5556 33.6H29.4444V30.5H32.5556V33.6ZM38.7778 39.8H35.6667V36.7H38.7778V39.8ZM38.7778 33.6H35.6667V30.5H38.7778V33.6ZM41.8889 25.85H20.1111V22.75H41.8889V25.85Z" fill="#EDAC04"/>
</svg>
