<svg width="62" height="61" viewBox="0 0 62 61" fill="none" xmlns="http://www.w3.org/2000/svg">
<rect x="0.5" width="61" height="61" rx="30.5" fill="#FFF9E9"/>
<path d="M41.8182 15L34.0909 21.975V39.025L41.8182 32.05V15ZM22.5 19.65C19.4864 19.65 16.2409 20.27 14 21.975V44.698C14 45.0855 14.3864 45.473 14.7727 45.473C14.9273 45.473 15.0045 45.3645 15.1591 45.3645C17.2455 44.357 20.2591 43.675 22.5 43.675C25.5136 43.675 28.7591 44.295 31 46C33.0864 44.6825 36.8727 43.675 39.5 43.675C42.05 43.675 44.6773 44.1555 46.8409 45.318C46.9955 45.3955 47.0727 45.3645 47.2273 45.3645C47.6136 45.3645 48 44.977 48 44.5895V21.975C47.0727 21.2775 46.0682 20.8125 44.9091 20.425V41.35C43.2091 40.8075 41.3545 40.575 39.5 40.575C36.8727 40.575 33.0864 41.5825 31 42.9V21.975C28.7591 20.27 25.5136 19.65 22.5 19.65Z" fill="#EDAC04"/>
</svg>
