<svg width="48" height="48" viewBox="0 0 48 48" fill="none" xmlns="http://www.w3.org/2000/svg">
<rect width="48" height="48" rx="24" fill="#FFF9E9"/>
<g clip-path="url(#clip0_320_605)">
<path d="M21 23C23.2091 23 25 21.2091 25 19C25 16.7909 23.2091 15 21 15C18.7909 15 17 16.7909 17 19C17 21.2091 18.7909 23 21 23Z" stroke="#EDAC04" stroke-width="1.5" stroke-linejoin="round"/>
<path d="M15 33V31C15 29.9391 15.4214 28.9217 16.1716 28.1716C16.9217 27.4214 17.9391 27 19 27H23C24.0609 27 25.0783 27.4214 25.8284 28.1716C26.5786 28.9217 27 29.9391 27 31V33" stroke="#EDAC04" stroke-width="1.5" stroke-linejoin="round"/>
<path d="M28 15.13C28.8604 15.3503 29.623 15.8507 30.1676 16.5523C30.7122 17.2539 31.0078 18.1168 31.0078 19.005C31.0078 19.8932 30.7122 20.7561 30.1676 21.4577C29.623 22.1593 28.8604 22.6597 28 22.88" stroke="#EDAC04" stroke-width="1.5" stroke-linejoin="round"/>
<path d="M33 33V31C32.9949 30.1172 32.6979 29.2608 32.1553 28.5644C31.6126 27.868 30.8548 27.3707 30 27.15" stroke="#EDAC04" stroke-width="1.5" stroke-linejoin="round"/>
</g>
<defs>
<clipPath id="clip0_320_605">
<rect width="24" height="24" fill="white" transform="translate(12 12)"/>
</clipPath>
</defs>
</svg>
