<svg width="48" height="48" viewBox="0 0 48 48" fill="none" xmlns="http://www.w3.org/2000/svg">
<rect width="48" height="48" rx="24" fill="#FFF9E9"/>
<g clip-path="url(#clip0_320_598)">
<path d="M26 15V19C26 19.2652 26.1054 19.5196 26.2929 19.7071C26.4804 19.8946 26.7348 20 27 20H31" stroke="#EDAC04" stroke-width="1.5" stroke-linejoin="round"/>
<path d="M31 30V31C31 31.5304 30.7893 32.0391 30.4142 32.4142C30.0391 32.7893 29.5304 33 29 33H19C18.4696 33 17.9609 32.7893 17.5858 32.4142C17.2107 32.0391 17 31.5304 17 31V30" stroke="#EDAC04" stroke-width="1.5" stroke-linejoin="round"/>
<path d="M15 25.9999H18M22.5 25.9999H25.5M30 25.9999H33" stroke="#EDAC04" stroke-width="1.5" stroke-linejoin="round"/>
<path d="M17 22V17C17 16.4696 17.2107 15.9609 17.5858 15.5858C17.9609 15.2107 18.4696 15 19 15H26L31 20V22" stroke="#EDAC04" stroke-width="1.5" stroke-linejoin="round"/>
</g>
<defs>
<clipPath id="clip0_320_598">
<rect width="24" height="24" fill="white" transform="translate(12 12)"/>
</clipPath>
</defs>
</svg>
